<?xml version="1.0" encoding="utf-8" ?><svg xmlns="http://www.w3.org/2000/svg" viewBox="288 176 452 536" width="452" height="536"><path fill="#E1571E" d="M302.365 191.54C350.611 192.335 399.94 191.746 448.297 191.73L721.6 191.59C720.92 246.153 722.288 301.565 721.863 356.156C721.622 387.088 723.332 424.289 719.61 454.423C711.954 516.41 681.213 566.17 638.368 609.988C604.789 643.046 555.517 678.211 511.85 696.033C505.854 693.69 496.181 688.733 490.358 685.781C452.617 666.729 418.026 641.993 387.797 612.438C341.227 566.187 310.319 514.427 303.426 448.158C302.047 434.895 302.46 420.662 302.463 407.267L302.483 354.752L302.365 191.54Z"/><path fill="#17130F" d="M322.505 211.154C354.658 211.948 389.981 211.257 422.32 211.268C515.437 210.84 608.555 210.895 701.67 211.431C702.354 257.617 701.932 305.022 701.947 351.286L701.964 400.345C701.953 478.999 690.435 520.336 639.134 581.878C625.482 568.853 611.691 554.489 597.905 541.152C607.286 531.95 616.229 521.74 622.93 510.429C638.478 484.185 642.259 451.372 634.917 422.015C627.194 391.135 612.147 365.95 589.885 343.415C581.756 335.185 575.791 329.129 565.516 323.049C576.187 338.537 584.23 365.558 582.062 383.916C578.462 414.41 547.096 375.866 541.216 368.109C526.088 347.227 521.746 331.635 523.653 305.682C525.613 279.019 539.668 257.561 559.607 240.469C534.159 242.775 521.248 249.196 500.102 262.761C444.257 298.584 426.356 374.409 453.021 433.682C454.261 436.438 453.224 440.105 450.354 441.411C439.185 443.098 423.173 424.749 419.766 416.045C414.499 402.587 415.276 382.671 420.836 369.89C418.733 371.948 416.666 374.042 414.635 376.17C395.008 396.836 383.329 428.791 384.569 457.14C386.099 492.111 400.916 517.457 425.599 540.855C412.643 553.647 397.5 569.598 383.952 581.228C350.102 541.769 327.104 496.724 323.101 444.397C322.165 432.157 322.451 420.172 322.464 407.902L322.523 354.411L322.505 211.154Z"/><path fill="#E1571E" d="M349.909 261.354C351.839 262.73 357.921 269.079 359.857 271.02L380.379 291.535L411.534 322.296C420.733 331.221 430.631 340.48 439.351 349.799C438.817 351.772 438.381 353.746 437.516 355.588L436.934 355.542C432.093 350.06 420.171 339.315 414.447 333.644C401.738 321.158 389.102 308.597 376.54 295.962C366.023 285.568 356.119 276.168 345.956 265.255L349.909 261.354Z"/><path fill="#E1571E" d="M673.653 260.96C674.871 261.915 676.492 263.933 677.554 265.16C664.927 278.881 650.563 292.532 637.132 305.662C623.94 318.559 610.335 332.537 596.813 344.881L592.911 340.359C620.055 314.127 646.97 287.66 673.653 260.96Z"/><path fill="#17130F" d="M429.983 544.623C445.212 556.542 461.395 567.733 480.57 572.265C496.786 577.194 527.044 578.686 542.886 572.787C562.162 568.296 577.958 556.805 593.408 545.032C607.29 559.573 621.367 572.674 635.47 586.782C597.963 626.815 561.369 651.097 512.311 675.899C475.694 658.395 440.85 636.395 410.309 609.437C403.104 603.077 394.879 593.854 388.182 586.679C402.099 572.392 416.29 559.212 429.983 544.623Z"/><path fill="#B08A4F" d="M476.164 394.069C534.143 398.251 581.436 443.527 579.273 504.324C578.557 524.431 569.077 549.404 553.426 562.445C550.553 564.789 543.622 569.705 542.886 572.787C527.044 578.686 496.786 577.194 480.57 572.265C480.128 569.846 471.495 562.532 469.182 559.917C447.446 535.339 437.958 503.784 448.504 472.057C455.825 483.955 462.311 494.672 476.605 498.571C492.635 502.944 502.228 486.95 504.809 473.592C510.251 445.427 497.796 412.421 476.164 394.069Z"/></svg>